<svg width="17" height="16" viewBox="0 0 17 16" fill="none" xmlns="http://www.w3.org/2000/svg">
<path d="M6.13334 14.6667C6.50153 14.6667 6.80001 14.3682 6.80001 14C6.80001 13.6319 6.50153 13.3334 6.13334 13.3334C5.76515 13.3334 5.46667 13.6319 5.46667 14C5.46667 14.3682 5.76515 14.6667 6.13334 14.6667Z" stroke="white" stroke-width="1.33333" stroke-linecap="round" stroke-linejoin="round"/>
<path d="M13.4667 14.6667C13.8349 14.6667 14.1334 14.3682 14.1334 14C14.1334 13.6319 13.8349 13.3334 13.4667 13.3334C13.0985 13.3334 12.8 13.6319 12.8 14C12.8 14.3682 13.0985 14.6667 13.4667 14.6667Z" stroke="white" stroke-width="1.33333" stroke-linecap="round" stroke-linejoin="round"/>
<path d="M2.16675 1.3667H3.50008L5.27341 9.6467C5.33847 9.94994 5.5072 10.221 5.75056 10.4133C5.99392 10.6055 6.29669 10.7069 6.60675 10.7H13.1267C13.4302 10.6995 13.7244 10.5956 13.9608 10.4053C14.1971 10.215 14.3615 9.94972 14.4267 9.65337L15.5267 4.70003H4.21341" stroke="white" stroke-width="1.33333" stroke-linecap="round" stroke-linejoin="round"/>
</svg>
