<svg width="17" height="17" viewBox="0 0 17 17" fill="none" xmlns="http://www.w3.org/2000/svg">
<path d="M7.26672 7.53345V11.5334" stroke="#E7000B" stroke-width="1.33333" stroke-linecap="round" stroke-linejoin="round"/>
<path d="M9.93347 7.53345V11.5334" stroke="#E7000B" stroke-width="1.33333" stroke-linecap="round" stroke-linejoin="round"/>
<path d="M13.2668 4.20007V13.5334C13.2668 13.887 13.1263 14.2262 12.8763 14.4762C12.6262 14.7263 12.2871 14.8667 11.9335 14.8667H5.26681C4.91318 14.8667 4.57404 14.7263 4.324 14.4762C4.07395 14.2262 3.93347 13.887 3.93347 13.5334V4.20007" stroke="#E7000B" stroke-width="1.33333" stroke-linecap="round" stroke-linejoin="round"/>
<path d="M2.6001 4.20007H14.6001" stroke="#E7000B" stroke-width="1.33333" stroke-linecap="round" stroke-linejoin="round"/>
<path d="M5.93347 4.20011V2.86678C5.93347 2.51316 6.07395 2.17402 6.324 1.92397C6.57404 1.67392 6.91318 1.53345 7.26681 1.53345H9.93347C10.2871 1.53345 10.6262 1.67392 10.8763 1.92397C11.1263 2.17402 11.2668 2.51316 11.2668 2.86678V4.20011" stroke="#E7000B" stroke-width="1.33333" stroke-linecap="round" stroke-linejoin="round"/>
</svg>
