<svg width="17" height="17" viewBox="0 0 17 17" fill="none" xmlns="http://www.w3.org/2000/svg">
<path d="M8.70496 2.20001H4.03829C3.68467 2.20001 3.34553 2.34049 3.09548 2.59054C2.84543 2.84058 2.70496 3.17972 2.70496 3.53335V12.8667C2.70496 13.2203 2.84543 13.5594 3.09548 13.8095C3.34553 14.0595 3.68467 14.2 4.03829 14.2H13.3716C13.7252 14.2 14.0644 14.0595 14.3144 13.8095C14.5645 13.5594 14.705 13.2203 14.705 12.8667V8.20001" stroke="#1A1A1A" stroke-width="1.33333" stroke-linecap="round" stroke-linejoin="round"/>
<path d="M12.955 1.95004C13.2202 1.68482 13.5799 1.53583 13.955 1.53583C14.3301 1.53583 14.6898 1.68482 14.955 1.95004C15.2202 2.21526 15.3692 2.57497 15.3692 2.95004C15.3692 3.32511 15.2202 3.68482 14.955 3.95004L8.94631 9.95937C8.78801 10.1175 8.59245 10.2333 8.37764 10.296L6.46231 10.856C6.40495 10.8728 6.34414 10.8738 6.28625 10.8589C6.22836 10.8441 6.17553 10.814 6.13328 10.7717C6.09102 10.7295 6.0609 10.6767 6.04607 10.6188C6.03124 10.5609 6.03225 10.5001 6.04898 10.4427L6.60898 8.52737C6.672 8.31274 6.788 8.11741 6.94631 7.95937L12.955 1.95004Z" stroke="#1A1A1A" stroke-width="1.33333" stroke-linecap="round" stroke-linejoin="round"/>
</svg>
