<svg width="17" height="16" viewBox="0 0 17 16" fill="none" xmlns="http://www.w3.org/2000/svg">
<path d="M7.13656 13.3333C7.1365 13.4572 7.17097 13.5787 7.23609 13.6841C7.30121 13.7895 7.39441 13.8746 7.50523 13.93L8.83856 14.5967C8.94022 14.6475 9.05319 14.6714 9.16672 14.6663C9.28026 14.6612 9.39059 14.6271 9.48725 14.5673C9.5839 14.5075 9.66367 14.424 9.71897 14.3247C9.77428 14.2254 9.80328 14.1137 9.80323 14V9.33333C9.80338 9.00292 9.9262 8.68433 10.1479 8.43933L14.9632 3.11333C15.0495 3.01771 15.1063 2.89912 15.1266 2.77192C15.147 2.64472 15.13 2.51435 15.0778 2.39658C15.0256 2.27881 14.9405 2.17868 14.8326 2.1083C14.7247 2.03792 14.5987 2.0003 14.4699 2H2.46989C2.34096 2.00005 2.21482 2.03748 2.10673 2.10776C1.99864 2.17804 1.91325 2.27815 1.8609 2.39598C1.80855 2.5138 1.79148 2.64427 1.81178 2.77159C1.83207 2.89892 1.88884 3.01762 1.97523 3.11333L6.79189 8.43933C7.01358 8.68433 7.13641 9.00292 7.13656 9.33333V13.3333Z" stroke="#1A1A1A" stroke-width="1.33333" stroke-linecap="round" stroke-linejoin="round"/>
</svg>
