<svg width="16" height="16" viewBox="0 0 16 16" fill="none" xmlns="http://www.w3.org/2000/svg">
<path d="M6.93343 1.60001C3.99423 1.60001 1.6001 3.99414 1.6001 6.93334C1.6001 9.87254 3.99423 12.2667 6.93343 12.2667C8.21157 12.2667 9.38537 11.8128 10.3053 11.0594L13.4897 14.2438C13.5388 14.2949 13.5977 14.3358 13.6628 14.364C13.728 14.3921 13.7981 14.407 13.869 14.4077C13.94 14.4084 14.0104 14.395 14.076 14.3682C14.1417 14.3413 14.2014 14.3017 14.2516 14.2515C14.3018 14.2013 14.3414 14.1417 14.3683 14.076C14.3951 14.0103 14.4085 13.9399 14.4078 13.8689C14.4071 13.798 14.3922 13.7279 14.3641 13.6627C14.3359 13.5976 14.295 13.5387 14.2438 13.4896L11.0595 10.3052C11.8129 9.38528 12.2668 8.21148 12.2668 6.93334C12.2668 3.99414 9.87263 1.60001 6.93343 1.60001ZM6.93343 2.66667C9.29616 2.66667 11.2001 4.57061 11.2001 6.93334C11.2001 9.29607 9.29616 11.2 6.93343 11.2C4.5707 11.2 2.66676 9.29607 2.66676 6.93334C2.66676 4.57061 4.5707 2.66667 6.93343 2.66667Z" fill="white"/>
</svg>
